<svg width="17" height="16" viewBox="0 0 17 16" fill="none" xmlns="http://www.w3.org/2000/svg">
<g id="Frame">
<path id="Vector" d="M12.4159 2C12.1399 2 11.9159 2.224 11.9159 2.5V3.99414H11.5955C10.6946 3.99414 9.95686 4.70052 9.91586 5.60352C9.86686 6.75352 9.44589 10.6967 6.12289 13.0957C5.94689 13.2227 5.8733 13.4473 5.9393 13.6543C6.0063 13.8593 6.19886 14 6.41586 14C12.6479 14 14.91 9.08811 14.91 5.78711C14.91 4.78411 14.1723 4 13.2323 4L12.9159 3.99805V2.5C12.9159 2.224 12.6919 2 12.4159 2ZM6.32211 2.00781C6.22348 2.02519 6.12998 2.07198 6.05648 2.14648C6.00948 2.19248 4.91 3.316 4.91 5.375C4.91 6.864 5.69252 7.55269 6.26352 8.05469C6.68852 8.42869 6.91 8.64 6.91 9C6.91 9.326 6.72658 10 6.17758 10C6.14458 9.998 5.37952 9.92556 4.88852 8.35156C4.83752 8.19056 4.70872 8.06553 4.54672 8.01953C4.38272 7.97153 4.20788 8.01105 4.08188 8.12305C4.03388 8.16505 2.91 9.166 2.91 10.75C2.91 11.57 3.38709 12.4828 4.15609 13.1328C4.25009 13.2118 4.36436 13.252 4.47836 13.252C4.62036 13.252 4.76217 13.1893 4.86117 13.0723C5.04017 12.8613 5.01162 12.5471 4.80062 12.3691C4.26063 11.9111 3.91 11.275 3.91 10.75C3.91 10.239 4.08042 9.80638 4.26742 9.48438C5.02842 10.9804 6.107 11 6.16 11C7.367 11 7.91 9.83 7.91 9C7.91 8.171 7.38667 7.70873 6.92367 7.30273C6.40267 6.84473 5.91 6.412 5.91 5.375C5.91 5.03 5.9467 4.71936 6.0057 4.44336C6.0977 4.88936 6.25533 5.31452 6.52133 5.60352C7.05033 6.17552 7.9662 6.08687 8.4432 5.54688C8.7652 5.18287 8.88277 4.66442 8.91977 4.23242C8.99477 4.27142 9.07223 4.31523 9.15023 4.36523C9.38023 4.51123 9.69169 4.44203 9.83969 4.20703C9.98569 3.97403 9.91548 3.66458 9.68148 3.51758C9.11848 3.16358 8.55409 3.02163 8.53109 3.01562C8.37009 2.97663 8.20197 3.01795 8.07797 3.12695C7.95497 3.23595 7.89291 3.3975 7.91391 3.5625C7.95191 3.8695 7.9482 4.59772 7.6932 4.88672C7.6432 4.94272 7.571 5 7.41 5C7.358 5 7.31366 4.98678 7.25766 4.92578C6.91166 4.55178 6.84605 3.30602 6.90805 2.54102C6.92605 2.33202 6.81094 2.13487 6.62094 2.04688C6.52594 2.00288 6.42073 1.99044 6.32211 2.00781ZM11.5936 4.99414L13.2303 5C13.6763 5 13.91 5.39511 13.91 5.78711C13.91 8.06111 12.6095 12.1825 7.89047 12.8945C10.5005 10.2575 10.8669 6.76144 10.9139 5.64844C10.9309 5.28144 11.2296 4.99414 11.5936 4.99414Z" fill="#828282"/>
</g>
</svg>
