<svg width="24" height="24" viewBox="0 0 24 24" fill="none" xmlns="http://www.w3.org/2000/svg">
<path d="M6.11 17.5C3.9 15.43 2 12.48 2 8.68C2 5.59 4.49 3.09 7.56 3.09C9.38 3.09 10.99 3.97 12 5.33C12.5138 4.63588 13.183 4.07173 13.954 3.68274C14.725 3.29376 15.5764 3.09076 16.44 3.09C17.59 3.09 18.66 3.44 19.55 4.05M21.74 7C21.91 7.53 22 8.1 22 8.69C22 15.69 15.52 19.82 12.62 20.82C12.28 20.94 11.72 20.94 11.38 20.82C10.73 20.6 9.91 20.22 9.02 19.69M22 2L2 22" stroke="black" stroke-width="1.5" stroke-linecap="round" stroke-linejoin="round"/>
</svg>
