<svg width="15" height="13" viewBox="0 0 15 13" fill="none" xmlns="http://www.w3.org/2000/svg">
<path d="M7.5 0C6.85156 0 6.30078 0.421875 6.09375 1H2.67578L0.00390625 7H0V7.00391L-0.00390625 7.01562H0.00390625C0.0117188 8.66016 1.35547 10 3 10C4.65234 10 6 8.65234 6 7H5.97656L3.76562 2H6.09375C6.24609 2.41797 6.57812 2.75391 7 2.90625V12H5V13H10V12H8V2.90625C8.42188 2.75391 8.75391 2.41797 8.90625 2H11.2305L9 7V7.00391L8.99609 7.01562H9C9.01172 8.66016 10.3555 10 12 10C13.6523 10 15 8.65234 15 7H14.9805L12.3281 1H8.90625C8.69922 0.421875 8.14844 0 7.5 0ZM7.5 1C7.78125 1 8 1.21875 8 1.5C8 1.78125 7.78125 2 7.5 2C7.21875 2 7 1.78125 7 1.5C7 1.21875 7.21875 1 7.5 1ZM3 2.73438L4.88672 7H1.09766L3 2.73438ZM12 2.73438L13.8867 7H10.0977L12 2.73438ZM1.28125 8H4.71875C4.375 8.59766 3.74219 9 3 9C2.25781 9 1.625 8.59766 1.28125 8ZM10.2773 8H13.7227C13.3789 8.59766 12.7422 9 12 9C11.2578 9 10.6211 8.59766 10.2773 8Z" fill="#828282"/>
</svg>
