<svg width="17" height="16" viewBox="0 0 17 16" fill="none" xmlns="http://www.w3.org/2000/svg">
<path d="M8.39178 1.01562C8.27068 1.01562 8.14959 1.0586 8.05584 1.14454L6.8449 2.23829L5.24725 1.89454C4.99725 1.83985 4.74725 1.98828 4.66912 2.23047L4.16912 3.78517L2.61444 4.28517C2.37225 4.36329 2.22772 4.61328 2.28241 4.86328L2.30975 4.99609H3.66912L4.71991 4.66017C4.87225 4.60938 4.99334 4.48828 5.04412 4.33594L5.48162 2.96876L6.88787 3.26954C7.04022 3.3047 7.20818 3.26172 7.32537 3.15234L8.38787 2.19142L9.45428 3.15234C9.57146 3.25781 9.73943 3.30079 9.89568 3.26954L11.298 2.96876L11.7394 4.33594C11.7863 4.48828 11.9074 4.60938 12.0597 4.66017L13.1105 4.99609H14.4738L14.5012 4.86328C14.5519 4.61328 14.4074 4.36329 14.1613 4.28517L12.6105 3.78517L12.1105 2.23047C12.0324 1.98828 11.7824 1.83985 11.5285 1.89454L9.93475 2.23829L8.72381 1.14454C8.63006 1.0586 8.51287 1.01562 8.39178 1.01562ZM2.38006 5.99609V9.99609H3.38006V8.24609L4.38006 8.99609V9.99609H5.38006V5.99609H4.38006V7.74609L3.38006 6.99609V5.99609H2.38006ZM6.38006 5.99609V9.99609H9.38006V8.99609H7.38006V8.84375L9.38006 8.08984V5.99609H6.38006ZM10.3801 5.99609V10.2422L12.3801 9.07422L14.3801 10.2422V5.99609H13.3801V8.50391L12.3801 7.91798L11.3801 8.50391V5.99609H10.3801ZM7.38006 6.99609H8.38006V7.40234L7.38006 7.77734V6.99609ZM2.31366 10.9961L2.28241 11.1484C2.22772 11.3984 2.37225 11.6484 2.61444 11.7266L4.16912 12.2266L4.66912 13.7773C4.74725 14.0234 5.00115 14.1641 5.24725 14.1172L6.8449 13.7734L8.05193 14.8672C8.14959 14.9531 8.27068 14.9961 8.38787 14.9961C8.50897 14.9961 8.63006 14.9531 8.72381 14.8672L9.93475 13.7734L11.5324 14.1172C11.7863 14.1641 12.0324 14.0234 12.1105 13.7773L12.6105 12.2266L14.1613 11.7266C14.4074 11.6484 14.5519 11.3984 14.5012 11.1484L14.4699 10.9961H13.173L12.0637 11.3555C11.9074 11.4023 11.7902 11.5234 11.7394 11.6758L11.3019 13.043L9.89568 12.7422C9.73943 12.707 9.57537 12.75 9.45818 12.8555L8.38787 13.8242L7.32537 12.8594C7.23162 12.7734 7.11443 12.7305 6.98943 12.7305C6.95818 12.7305 6.91912 12.7344 6.88787 12.7422L5.48162 13.043L5.04412 11.6797C4.99334 11.5234 4.87225 11.4062 4.71991 11.3555L3.60662 10.9961H2.31366Z" fill="#ED1B34"/>
</svg>
