<svg xmlns="http://www.w3.org/2000/svg" xmlns:xlink="http://www.w3.org/1999/xlink" width="500" zoomAndPan="magnify" viewBox="0 0 375 374.999991" height="500" preserveAspectRatio="xMidYMid meet" version="1.0"><defs><g/></defs><rect x="-37.5" width="450" fill="#ffffff" y="-37.499999" height="449.999989" fill-opacity="1"/><rect x="-37.5" width="450" fill="#053225" y="-37.499999" height="449.999989" fill-opacity="1"/><g fill="#f6f7eb" fill-opacity="1"><g transform="translate(37.722658, 209.388545)"><g><path d="M 31.855469 -61.511719 L 3.609375 -61.511719 C 3.519531 -61.511719 3.433594 -61.421875 3.433594 -61.246094 C 3.433594 -61.160156 3.519531 -61.070312 3.609375 -61.070312 L 15.664062 -61.070312 C 11.175781 -59.664062 8.183594 -55.527344 8.183594 -50.949219 L 8.183594 -39.773438 C 8.183594 -34.757812 11.703125 -30.445312 16.542969 -29.480469 C 11.703125 -28.421875 8.183594 -24.109375 8.183594 -19.09375 L 8.183594 -4.664062 C 8.183594 -2.199219 6.160156 -0.175781 3.609375 -0.175781 C 3.519531 -0.175781 3.519531 -0.175781 3.519531 -0.175781 C 3.519531 -0.0898438 3.519531 -0.0898438 3.519531 -0.0898438 C 3.519531 -0.0898438 3.433594 -0.0898438 3.433594 -0.0898438 C 3.433594 -0.0898438 3.433594 -0.0898438 3.433594 0 C 3.433594 0.0898438 3.433594 0.0898438 3.433594 0.0898438 C 3.433594 0.0898438 3.433594 0.175781 3.433594 0.175781 C 3.433594 0.265625 3.519531 0.351562 3.609375 0.351562 L 3.695312 0.351562 L 18.742188 0.265625 C 18.832031 0.265625 19.007812 0.175781 19.007812 0 C 19.007812 -0.0898438 18.832031 -0.175781 18.742188 -0.175781 L 6.777344 -0.175781 C 11.175781 -1.582031 14.167969 -5.632812 14.167969 -10.296875 L 14.167969 -24.640625 C 14.167969 -27.015625 15.925781 -28.953125 18.304688 -29.214844 C 18.390625 -29.214844 18.566406 -29.214844 18.742188 -29.214844 L 31.855469 -29.214844 C 40.742188 -29.214844 47.957031 -36.429688 48.046875 -45.320312 C 47.957031 -54.292969 40.742188 -61.511719 31.855469 -61.511719 Z M 18.742188 -29.65625 C 18.566406 -29.65625 18.390625 -29.65625 18.304688 -29.65625 C 15.925781 -29.917969 14.167969 -31.855469 14.167969 -34.230469 L 14.167969 -56.496094 C 14.167969 -58.78125 15.925781 -60.804688 18.304688 -60.980469 C 18.390625 -60.980469 18.566406 -61.070312 18.742188 -61.070312 L 28.421875 -61.070312 C 35.199219 -61.070312 40.65625 -54.03125 40.65625 -45.320312 C 40.65625 -36.695312 35.199219 -29.65625 28.421875 -29.65625 Z M 18.742188 -29.65625 "/></g></g></g><g fill="#f6f7eb" fill-opacity="1"><g transform="translate(88.672415, 209.388545)"><g><path d="M 13.289062 -53.152344 C 0.878906 -40.65625 0.878906 -20.503906 13.289062 -8.097656 C 19.269531 -2.113281 27.367188 1.230469 35.816406 1.230469 C 44.261719 1.230469 52.359375 -2.113281 58.34375 -8.097656 C 64.328125 -14.078125 67.671875 -22.175781 67.671875 -30.625 C 67.671875 -39.070312 64.328125 -47.167969 58.34375 -53.152344 C 45.847656 -65.558594 25.785156 -65.558594 13.289062 -53.152344 Z M 13.640625 -52.796875 C 17.6875 -56.757812 23.054688 -58.695312 28.953125 -58.695312 C 37.046875 -58.695312 46.023438 -55 53.152344 -47.957031 C 59.046875 -41.976562 62.832031 -34.582031 63.710938 -27.191406 C 64.679688 -19.710938 62.566406 -13.023438 57.992188 -8.449219 C 48.398438 1.144531 30.710938 -1.054688 18.480469 -13.289062 C 6.246094 -25.519531 4.046875 -43.207031 13.640625 -52.796875 Z M 13.640625 -52.796875 "/></g></g></g><g fill="#f6f7eb" fill-opacity="1"><g transform="translate(160.477255, 209.388545)"><g><path d="M 27.542969 -61.511719 L 3.871094 -61.511719 C 3.785156 -61.511719 3.695312 -61.421875 3.695312 -61.246094 C 3.695312 -61.160156 3.785156 -61.070312 3.871094 -61.070312 L 15.925781 -61.070312 C 11.441406 -59.664062 8.449219 -55.527344 8.449219 -50.949219 L 8.449219 -4.664062 C 8.449219 -2.199219 6.421875 -0.175781 3.871094 -0.175781 C 3.785156 -0.175781 3.785156 -0.0898438 3.695312 -0.0898438 C 3.695312 -0.0898438 3.695312 0 3.695312 0 C 3.695312 0 3.695312 0.0898438 3.695312 0.0898438 C 3.695312 0.175781 3.695312 0.175781 3.695312 0.175781 C 3.695312 0.265625 3.785156 0.351562 3.871094 0.351562 L 27.542969 0.265625 C 44.527344 0.265625 58.34375 -13.550781 58.429688 -30.625 C 58.34375 -47.695312 44.527344 -61.511719 27.542969 -61.511719 Z M 14.429688 -10.296875 L 14.429688 -56.496094 C 14.429688 -58.78125 16.191406 -60.804688 18.566406 -60.980469 C 18.65625 -60.980469 18.832031 -61.070312 19.007812 -61.070312 L 24.109375 -61.070312 C 38.984375 -61.070312 51.039062 -47.34375 51.039062 -30.625 C 51.039062 -13.816406 38.984375 -0.175781 24.109375 -0.175781 C 24.109375 -0.175781 24.023438 -0.175781 24.023438 -0.175781 L 7.039062 -0.175781 C 11.441406 -1.496094 14.429688 -5.632812 14.429688 -10.296875 Z M 14.429688 -10.296875 "/></g></g></g><g fill="#f6f7eb" fill-opacity="1"><g transform="translate(222.954496, 209.388545)"><g><path d="M 54.824219 -61.511719 L 39.6875 -61.511719 C 39.597656 -61.511719 39.511719 -61.421875 39.511719 -61.246094 C 39.511719 -61.160156 39.597656 -61.070312 39.6875 -61.070312 L 51.65625 -61.070312 C 49.894531 -60.542969 48.3125 -59.574219 46.992188 -58.167969 L 47.78125 -59.75 C 47.871094 -59.925781 47.871094 -60.015625 47.695312 -60.101562 C 47.605469 -60.101562 47.429688 -60.101562 47.429688 -60.015625 L 29.390625 -24.109375 L 13.199219 -56.40625 C 13.023438 -56.933594 12.847656 -57.375 12.847656 -57.902344 C 12.847656 -59.664062 14.253906 -61.070312 16.015625 -61.070312 C 16.105469 -61.070312 16.28125 -61.160156 16.28125 -61.246094 C 16.28125 -61.421875 16.105469 -61.511719 16.015625 -61.511719 L 0.878906 -61.511719 C 0.792969 -61.511719 0.703125 -61.421875 0.703125 -61.246094 C 0.703125 -61.160156 0.792969 -61.070312 0.878906 -61.070312 L 13.464844 -61.070312 C 10.472656 -59.925781 8.535156 -57.199219 8.535156 -54.03125 C 8.535156 -52.886719 8.800781 -51.742188 9.328125 -50.6875 L 23.320312 -22.878906 L 23.320312 -4.664062 C 23.320312 -2.199219 21.296875 -0.175781 18.742188 -0.175781 C 18.742188 -0.175781 18.65625 -0.175781 18.65625 -0.175781 C 18.65625 -0.0898438 18.65625 -0.0898438 18.65625 -0.0898438 C 18.65625 -0.0898438 18.65625 -0.0898438 18.566406 -0.0898438 C 18.566406 0 18.566406 0 18.566406 0.0898438 C 18.566406 0.175781 18.566406 0.175781 18.566406 0.265625 C 18.65625 0.265625 18.742188 0.351562 18.742188 0.351562 L 18.832031 0.351562 L 33.878906 0.265625 C 33.96875 0.265625 34.054688 0.265625 34.054688 0.175781 C 34.144531 0.175781 34.144531 0.0898438 34.144531 0.0898438 C 34.144531 -0.0898438 34.054688 -0.175781 33.878906 -0.175781 L 21.910156 -0.175781 C 26.3125 -1.496094 29.304688 -5.632812 29.304688 -10.296875 L 29.304688 -22.878906 L 29.65625 -23.496094 L 45.757812 -55.703125 C 47.605469 -59.046875 51.039062 -61.070312 54.824219 -61.070312 C 55 -61.070312 55.085938 -61.160156 55.085938 -61.246094 C 55.085938 -61.335938 55 -61.421875 55 -61.421875 C 54.910156 -61.511719 54.910156 -61.511719 54.824219 -61.511719 Z M 54.824219 -61.511719 "/></g></g></g><g fill="#f6f7eb" fill-opacity="1"><g transform="translate(278.656023, 209.388545)"><g><path d="M 54.824219 -61.511719 C 54.558594 -61.511719 54.382812 -61.511719 54.207031 -61.511719 L 39.6875 -61.511719 C 39.597656 -61.511719 39.421875 -61.335938 39.421875 -61.246094 C 39.421875 -61.070312 39.597656 -60.980469 39.6875 -60.980469 L 51.566406 -60.980469 C 47.253906 -59.574219 44.261719 -55.527344 44.261719 -50.949219 L 44.261719 -36.605469 C 44.261719 -34.230469 42.503906 -32.296875 40.125 -32.03125 C 40.039062 -32.03125 39.863281 -32.03125 39.6875 -32.03125 L 18.742188 -32.03125 C 18.566406 -32.03125 18.390625 -32.03125 18.304688 -32.03125 C 15.925781 -32.296875 14.167969 -34.230469 14.167969 -36.605469 L 14.167969 -56.496094 C 14.167969 -58.78125 15.925781 -60.804688 18.304688 -60.980469 C 18.390625 -60.980469 18.566406 -61.070312 18.742188 -61.070312 C 18.832031 -61.070312 19.007812 -61.160156 19.007812 -61.246094 C 19.007812 -61.421875 18.832031 -61.511719 18.742188 -61.511719 L 3.609375 -61.511719 C 3.519531 -61.511719 3.433594 -61.421875 3.433594 -61.246094 C 3.433594 -61.160156 3.519531 -61.070312 3.609375 -61.070312 L 15.664062 -61.070312 C 11.175781 -59.664062 8.183594 -55.527344 8.183594 -50.949219 L 8.183594 -42.152344 C 8.183594 -37.136719 11.703125 -32.824219 16.542969 -31.765625 C 11.703125 -30.710938 8.183594 -26.398438 8.183594 -21.472656 L 8.183594 -4.75 C 8.183594 -2.375 6.421875 -0.441406 4.136719 -0.175781 L 3.609375 -0.175781 C 3.519531 -0.175781 3.433594 -0.0898438 3.433594 0 C 3.433594 0.0898438 3.433594 0.0898438 3.433594 0.0898438 C 3.433594 0.175781 3.519531 0.265625 3.609375 0.265625 C 3.871094 0.265625 4.046875 0.265625 4.3125 0.265625 L 18.742188 0.265625 C 18.832031 0.265625 19.007812 0.175781 19.007812 0 C 19.007812 -0.0898438 18.832031 -0.175781 18.742188 -0.175781 L 6.863281 -0.175781 C 11.175781 -1.582031 14.167969 -5.632812 14.167969 -10.296875 L 14.167969 -27.015625 C 14.167969 -29.304688 15.925781 -31.328125 18.304688 -31.503906 C 18.390625 -31.503906 18.566406 -31.589844 18.742188 -31.589844 L 39.6875 -31.589844 C 39.863281 -31.589844 40.039062 -31.503906 40.125 -31.503906 C 42.503906 -31.328125 44.261719 -29.304688 44.261719 -27.015625 L 44.261719 -4.75 C 44.261719 -2.375 42.503906 -0.441406 40.125 -0.175781 C 40.039062 -0.175781 39.863281 -0.175781 39.6875 -0.175781 C 39.597656 -0.175781 39.421875 -0.0898438 39.421875 0.0898438 C 39.421875 0.175781 39.597656 0.265625 39.6875 0.265625 L 54.824219 0.265625 C 54.910156 0.265625 55.085938 0.175781 55.085938 0.0898438 C 55.085938 -0.0898438 54.910156 -0.175781 54.824219 -0.175781 L 42.765625 -0.175781 C 47.253906 -1.496094 50.246094 -5.632812 50.246094 -10.296875 L 50.246094 -21.472656 C 50.246094 -26.398438 46.726562 -30.710938 41.886719 -31.765625 C 46.726562 -32.824219 50.246094 -37.136719 50.246094 -42.152344 L 50.246094 -56.496094 C 50.246094 -58.78125 52.007812 -60.71875 54.292969 -60.980469 L 54.824219 -60.980469 C 54.910156 -60.980469 55.085938 -61.070312 55.085938 -61.246094 C 55.085938 -61.421875 54.910156 -61.511719 54.824219 -61.511719 Z M 54.824219 -61.511719 "/></g></g></g><g fill="#f6f7eb" fill-opacity="1"><g transform="translate(95.144852, 239.180727)"><g><path d="M 8.125 -0.125 C 8.144531 -0.125 8.15625 -0.101562 8.15625 -0.0625 C 8.15625 -0.0195312 8.144531 0 8.125 0 C 7.914062 0 7.75 -0.00390625 7.625 -0.015625 L 6.296875 -0.015625 C 6.191406 -0.00390625 6.039062 0 5.84375 0 C 5.832031 0 5.828125 -0.0195312 5.828125 -0.0625 C 5.828125 -0.101562 5.832031 -0.125 5.84375 -0.125 C 6.070312 -0.125 6.238281 -0.140625 6.34375 -0.171875 C 6.457031 -0.210938 6.53125 -0.28125 6.5625 -0.375 C 6.601562 -0.46875 6.617188 -0.613281 6.609375 -0.8125 L 6.4375 -5.359375 L 4.15625 -0.0625 C 4.132812 -0.0390625 4.101562 -0.03125 4.0625 -0.03125 C 4.03125 -0.03125 4.003906 -0.0390625 3.984375 -0.0625 L 1.515625 -5.296875 L 1.4375 -1.09375 C 1.425781 -0.738281 1.484375 -0.488281 1.609375 -0.34375 C 1.734375 -0.195312 1.957031 -0.125 2.28125 -0.125 C 2.289062 -0.125 2.296875 -0.101562 2.296875 -0.0625 C 2.296875 -0.0195312 2.289062 0 2.28125 0 C 2.09375 0 1.945312 -0.00390625 1.84375 -0.015625 L 0.796875 -0.015625 C 0.703125 -0.00390625 0.566406 0 0.390625 0 C 0.378906 0 0.375 -0.0195312 0.375 -0.0625 C 0.375 -0.101562 0.378906 -0.125 0.390625 -0.125 C 0.671875 -0.125 0.875 -0.195312 1 -0.34375 C 1.125 -0.488281 1.1875 -0.738281 1.1875 -1.09375 L 1.28125 -5.734375 C 1.082031 -5.992188 0.804688 -6.125 0.453125 -6.125 C 0.441406 -6.125 0.4375 -6.144531 0.4375 -6.1875 C 0.4375 -6.226562 0.441406 -6.25 0.453125 -6.25 L 0.828125 -6.234375 C 0.898438 -6.234375 0.992188 -6.234375 1.109375 -6.234375 C 1.234375 -6.234375 1.335938 -6.234375 1.421875 -6.234375 C 1.503906 -6.242188 1.566406 -6.25 1.609375 -6.25 C 1.691406 -6.25 1.757812 -6.21875 1.8125 -6.15625 C 1.875 -6.09375 1.957031 -5.953125 2.0625 -5.734375 L 4.296875 -1.03125 L 6.484375 -6 C 6.554688 -6.164062 6.65625 -6.25 6.78125 -6.25 C 6.8125 -6.25 6.859375 -6.242188 6.921875 -6.234375 C 6.984375 -6.234375 7.070312 -6.234375 7.1875 -6.234375 L 7.65625 -6.234375 C 7.726562 -6.242188 7.835938 -6.25 7.984375 -6.25 C 8.003906 -6.25 8.015625 -6.226562 8.015625 -6.1875 C 8.015625 -6.144531 8.003906 -6.125 7.984375 -6.125 C 7.648438 -6.125 7.410156 -6.078125 7.265625 -5.984375 C 7.117188 -5.890625 7.050781 -5.707031 7.0625 -5.4375 L 7.265625 -0.8125 C 7.265625 -0.601562 7.285156 -0.453125 7.328125 -0.359375 C 7.378906 -0.265625 7.457031 -0.203125 7.5625 -0.171875 C 7.675781 -0.140625 7.863281 -0.125 8.125 -0.125 Z M 8.125 -0.125 "/></g></g></g><g fill="#f6f7eb" fill-opacity="1"><g transform="translate(106.36157, 239.180727)"><g><path d="M 1.984375 -0.8125 C 1.984375 -0.613281 2.003906 -0.460938 2.046875 -0.359375 C 2.085938 -0.265625 2.164062 -0.203125 2.28125 -0.171875 C 2.394531 -0.140625 2.582031 -0.125 2.84375 -0.125 C 2.863281 -0.125 2.875 -0.101562 2.875 -0.0625 C 2.875 -0.0195312 2.863281 0 2.84375 0 C 2.644531 0 2.484375 -0.00390625 2.359375 -0.015625 L 0.953125 -0.015625 C 0.835938 -0.00390625 0.675781 0 0.46875 0 C 0.445312 0 0.4375 -0.0195312 0.4375 -0.0625 C 0.4375 -0.101562 0.445312 -0.125 0.46875 -0.125 C 0.71875 -0.125 0.898438 -0.140625 1.015625 -0.171875 C 1.140625 -0.203125 1.222656 -0.265625 1.265625 -0.359375 C 1.304688 -0.460938 1.328125 -0.613281 1.328125 -0.8125 L 1.328125 -5.4375 C 1.328125 -5.632812 1.304688 -5.78125 1.265625 -5.875 C 1.222656 -5.96875 1.140625 -6.03125 1.015625 -6.0625 C 0.898438 -6.101562 0.71875 -6.125 0.46875 -6.125 C 0.445312 -6.125 0.4375 -6.144531 0.4375 -6.1875 C 0.4375 -6.226562 0.445312 -6.25 0.46875 -6.25 L 0.953125 -6.234375 C 1.234375 -6.222656 1.46875 -6.21875 1.65625 -6.21875 C 1.851562 -6.21875 2.09375 -6.222656 2.375 -6.234375 L 2.84375 -6.25 C 2.863281 -6.25 2.875 -6.226562 2.875 -6.1875 C 2.875 -6.144531 2.863281 -6.125 2.84375 -6.125 C 2.59375 -6.125 2.410156 -6.101562 2.296875 -6.0625 C 2.179688 -6.03125 2.097656 -5.960938 2.046875 -5.859375 C 2.003906 -5.765625 1.984375 -5.617188 1.984375 -5.421875 Z M 1.984375 -0.8125 "/></g></g></g><g fill="#f6f7eb" fill-opacity="1"><g transform="translate(112.540279, 239.180727)"><g><path d="M 4.15625 -6.359375 C 4.46875 -6.359375 4.785156 -6.328125 5.109375 -6.265625 C 5.441406 -6.210938 5.707031 -6.128906 5.90625 -6.015625 C 5.957031 -5.984375 5.992188 -5.953125 6.015625 -5.921875 C 6.035156 -5.890625 6.046875 -5.835938 6.046875 -5.765625 L 6.15625 -4.65625 C 6.15625 -4.632812 6.140625 -4.617188 6.109375 -4.609375 C 6.078125 -4.609375 6.054688 -4.617188 6.046875 -4.640625 C 5.898438 -5.148438 5.628906 -5.523438 5.234375 -5.765625 C 4.835938 -6.015625 4.347656 -6.140625 3.765625 -6.140625 C 3.253906 -6.140625 2.804688 -6.023438 2.421875 -5.796875 C 2.046875 -5.578125 1.753906 -5.265625 1.546875 -4.859375 C 1.335938 -4.453125 1.234375 -3.984375 1.234375 -3.453125 C 1.234375 -2.828125 1.363281 -2.25 1.625 -1.71875 C 1.882812 -1.195312 2.226562 -0.78125 2.65625 -0.46875 C 3.09375 -0.164062 3.566406 -0.015625 4.078125 -0.015625 C 4.554688 -0.015625 4.972656 -0.144531 5.328125 -0.40625 C 5.679688 -0.675781 5.953125 -1.082031 6.140625 -1.625 C 6.140625 -1.644531 6.15625 -1.65625 6.1875 -1.65625 C 6.195312 -1.65625 6.210938 -1.648438 6.234375 -1.640625 C 6.253906 -1.640625 6.265625 -1.632812 6.265625 -1.625 L 6.125 -0.484375 C 6.101562 -0.410156 6.082031 -0.359375 6.0625 -0.328125 C 6.050781 -0.304688 6.015625 -0.285156 5.953125 -0.265625 C 5.359375 -0.00390625 4.726562 0.125 4.0625 0.125 C 3.257812 0.125 2.585938 -0.0351562 2.046875 -0.359375 C 1.515625 -0.679688 1.117188 -1.09375 0.859375 -1.59375 C 0.609375 -2.09375 0.484375 -2.625 0.484375 -3.1875 C 0.484375 -3.789062 0.65625 -4.335938 1 -4.828125 C 1.34375 -5.316406 1.789062 -5.691406 2.34375 -5.953125 C 2.90625 -6.222656 3.507812 -6.359375 4.15625 -6.359375 Z M 4.15625 -6.359375 "/></g></g></g><g fill="#f6f7eb" fill-opacity="1"><g transform="translate(122.087658, 239.180727)"><g><path d="M 6.734375 1.875 C 6.734375 1.1875 6.617188 0.703125 6.390625 0.421875 C 6.171875 0.140625 5.796875 0 5.265625 0 L 0.34375 0 C 0.332031 0 0.328125 -0.0195312 0.328125 -0.0625 C 0.328125 -0.101562 0.332031 -0.125 0.34375 -0.125 C 0.601562 -0.125 0.789062 -0.140625 0.90625 -0.171875 C 1.03125 -0.203125 1.113281 -0.265625 1.15625 -0.359375 C 1.207031 -0.460938 1.234375 -0.613281 1.234375 -0.8125 L 1.234375 -5.4375 C 1.234375 -5.632812 1.207031 -5.78125 1.15625 -5.875 C 1.113281 -5.96875 1.03125 -6.03125 0.90625 -6.0625 C 0.789062 -6.101562 0.601562 -6.125 0.34375 -6.125 C 0.332031 -6.125 0.328125 -6.144531 0.328125 -6.1875 C 0.328125 -6.226562 0.332031 -6.25 0.34375 -6.25 L 0.84375 -6.234375 C 1.125 -6.222656 1.351562 -6.21875 1.53125 -6.21875 C 1.71875 -6.21875 1.957031 -6.222656 2.25 -6.234375 L 2.75 -6.25 C 2.757812 -6.25 2.765625 -6.226562 2.765625 -6.1875 C 2.765625 -6.144531 2.757812 -6.125 2.75 -6.125 C 2.488281 -6.125 2.296875 -6.101562 2.171875 -6.0625 C 2.054688 -6.03125 1.976562 -5.96875 1.9375 -5.875 C 1.894531 -5.78125 1.875 -5.632812 1.875 -5.4375 L 1.875 -0.828125 C 1.875 -0.597656 1.882812 -0.445312 1.90625 -0.375 C 1.925781 -0.300781 1.984375 -0.253906 2.078125 -0.234375 C 2.171875 -0.210938 2.363281 -0.203125 2.65625 -0.203125 L 4.515625 -0.203125 C 4.816406 -0.203125 5.019531 -0.210938 5.125 -0.234375 C 5.226562 -0.253906 5.289062 -0.300781 5.3125 -0.375 C 5.34375 -0.457031 5.359375 -0.609375 5.359375 -0.828125 L 5.359375 -5.4375 C 5.359375 -5.632812 5.335938 -5.78125 5.296875 -5.875 C 5.253906 -5.96875 5.171875 -6.03125 5.046875 -6.0625 C 4.929688 -6.101562 4.742188 -6.125 4.484375 -6.125 C 4.460938 -6.125 4.453125 -6.144531 4.453125 -6.1875 C 4.453125 -6.226562 4.460938 -6.25 4.484375 -6.25 L 4.984375 -6.234375 C 5.273438 -6.222656 5.507812 -6.21875 5.6875 -6.21875 C 5.863281 -6.21875 6.09375 -6.222656 6.375 -6.234375 L 6.875 -6.25 C 6.894531 -6.25 6.90625 -6.226562 6.90625 -6.1875 C 6.90625 -6.144531 6.894531 -6.125 6.875 -6.125 C 6.625 -6.125 6.4375 -6.101562 6.3125 -6.0625 C 6.1875 -6.03125 6.101562 -5.96875 6.0625 -5.875 C 6.019531 -5.78125 6 -5.632812 6 -5.4375 L 6 -0.8125 C 6 -0.5625 6.007812 -0.394531 6.03125 -0.3125 C 6.050781 -0.226562 6.109375 -0.175781 6.203125 -0.15625 C 6.296875 -0.132812 6.484375 -0.125 6.765625 -0.125 C 6.816406 -0.125 6.847656 -0.113281 6.859375 -0.09375 C 6.867188 -0.0820312 6.875 -0.0507812 6.875 0 C 6.875 0.113281 6.867188 0.210938 6.859375 0.296875 C 6.847656 0.628906 6.84375 1.15625 6.84375 1.875 C 6.84375 1.90625 6.820312 1.921875 6.78125 1.921875 C 6.75 1.921875 6.734375 1.90625 6.734375 1.875 Z M 6.734375 1.875 "/></g></g></g><g fill="#f6f7eb" fill-opacity="1"><g transform="translate(132.2248, 239.180727)"><g><path d="M 4.75 -1.484375 C 4.75 -1.503906 4.765625 -1.515625 4.796875 -1.515625 C 4.804688 -1.515625 4.820312 -1.507812 4.84375 -1.5 C 4.863281 -1.488281 4.875 -1.476562 4.875 -1.46875 C 4.8125 -1.050781 4.78125 -0.613281 4.78125 -0.15625 C 4.78125 -0.09375 4.765625 -0.0507812 4.734375 -0.03125 C 4.710938 -0.0078125 4.675781 0 4.625 0 L 0.4375 0 C 0.414062 0 0.40625 -0.0195312 0.40625 -0.0625 C 0.40625 -0.101562 0.414062 -0.125 0.4375 -0.125 C 0.6875 -0.125 0.867188 -0.140625 0.984375 -0.171875 C 1.097656 -0.203125 1.175781 -0.265625 1.21875 -0.359375 C 1.269531 -0.460938 1.296875 -0.613281 1.296875 -0.8125 L 1.296875 -5.4375 C 1.296875 -5.632812 1.269531 -5.78125 1.21875 -5.875 C 1.175781 -5.96875 1.097656 -6.03125 0.984375 -6.0625 C 0.867188 -6.101562 0.6875 -6.125 0.4375 -6.125 C 0.414062 -6.125 0.40625 -6.144531 0.40625 -6.1875 C 0.40625 -6.226562 0.414062 -6.25 0.4375 -6.25 L 4.453125 -6.25 C 4.515625 -6.25 4.546875 -6.21875 4.546875 -6.15625 L 4.5625 -4.9375 C 4.5625 -4.914062 4.539062 -4.898438 4.5 -4.890625 C 4.46875 -4.890625 4.453125 -4.898438 4.453125 -4.921875 C 4.429688 -5.273438 4.320312 -5.550781 4.125 -5.75 C 3.9375 -5.945312 3.679688 -6.046875 3.359375 -6.046875 L 2.75 -6.046875 C 2.519531 -6.046875 2.347656 -6.023438 2.234375 -5.984375 C 2.117188 -5.953125 2.039062 -5.890625 2 -5.796875 C 1.957031 -5.703125 1.9375 -5.566406 1.9375 -5.390625 L 1.9375 -3.359375 L 3.15625 -3.359375 C 3.476562 -3.359375 3.707031 -3.410156 3.84375 -3.515625 C 3.976562 -3.628906 4.046875 -3.8125 4.046875 -4.0625 C 4.046875 -4.070312 4.066406 -4.078125 4.109375 -4.078125 C 4.148438 -4.078125 4.171875 -4.070312 4.171875 -4.0625 L 4.15625 -3.25 C 4.15625 -3.050781 4.160156 -2.90625 4.171875 -2.8125 L 4.1875 -2.328125 C 4.1875 -2.316406 4.164062 -2.3125 4.125 -2.3125 C 4.082031 -2.3125 4.0625 -2.316406 4.0625 -2.328125 C 4.0625 -2.617188 3.988281 -2.828125 3.84375 -2.953125 C 3.695312 -3.085938 3.457031 -3.15625 3.125 -3.15625 L 1.9375 -3.15625 L 1.9375 -0.84375 C 1.9375 -0.65625 1.957031 -0.519531 2 -0.4375 C 2.039062 -0.351562 2.113281 -0.289062 2.21875 -0.25 C 2.320312 -0.21875 2.488281 -0.203125 2.71875 -0.203125 L 3.515625 -0.203125 C 3.835938 -0.203125 4.101562 -0.316406 4.3125 -0.546875 C 4.53125 -0.773438 4.675781 -1.085938 4.75 -1.484375 Z M 4.75 -1.484375 "/></g></g></g><g fill="#f6f7eb" fill-opacity="1"><g transform="translate(140.452701, 239.180727)"><g/></g></g><g fill="#f6f7eb" fill-opacity="1"><g transform="translate(145.651797, 239.180727)"><g><path d="M 0.34375 0 C 0.332031 0 0.328125 -0.0195312 0.328125 -0.0625 C 0.328125 -0.101562 0.332031 -0.125 0.34375 -0.125 C 0.601562 -0.125 0.789062 -0.140625 0.90625 -0.171875 C 1.03125 -0.203125 1.113281 -0.265625 1.15625 -0.359375 C 1.207031 -0.460938 1.234375 -0.613281 1.234375 -0.8125 L 1.234375 -5.4375 C 1.234375 -5.632812 1.207031 -5.78125 1.15625 -5.875 C 1.113281 -5.96875 1.03125 -6.03125 0.90625 -6.0625 C 0.789062 -6.101562 0.601562 -6.125 0.34375 -6.125 C 0.332031 -6.125 0.328125 -6.144531 0.328125 -6.1875 C 0.328125 -6.226562 0.332031 -6.25 0.34375 -6.25 L 0.84375 -6.234375 C 1.125 -6.222656 1.351562 -6.21875 1.53125 -6.21875 C 1.707031 -6.21875 1.929688 -6.222656 2.203125 -6.234375 L 2.640625 -6.25 C 2.660156 -6.25 2.671875 -6.226562 2.671875 -6.1875 C 2.671875 -6.144531 2.660156 -6.125 2.640625 -6.125 C 2.410156 -6.125 2.242188 -6.101562 2.140625 -6.0625 C 2.035156 -6.03125 1.960938 -5.96875 1.921875 -5.875 C 1.890625 -5.78125 1.875 -5.632812 1.875 -5.4375 L 1.875 -0.828125 C 1.875 -0.597656 1.882812 -0.445312 1.90625 -0.375 C 1.925781 -0.300781 1.984375 -0.253906 2.078125 -0.234375 C 2.171875 -0.210938 2.363281 -0.203125 2.65625 -0.203125 L 3.984375 -0.203125 C 4.285156 -0.203125 4.484375 -0.210938 4.578125 -0.234375 C 4.679688 -0.253906 4.742188 -0.300781 4.765625 -0.375 C 4.796875 -0.457031 4.8125 -0.609375 4.8125 -0.828125 L 4.8125 -5.4375 C 4.8125 -5.632812 4.789062 -5.78125 4.75 -5.875 C 4.71875 -5.96875 4.648438 -6.03125 4.546875 -6.0625 C 4.441406 -6.101562 4.273438 -6.125 4.046875 -6.125 C 4.023438 -6.125 4.015625 -6.144531 4.015625 -6.1875 C 4.015625 -6.226562 4.023438 -6.25 4.046875 -6.25 L 4.53125 -6.234375 C 4.800781 -6.222656 5.007812 -6.21875 5.15625 -6.21875 C 5.320312 -6.21875 5.53125 -6.222656 5.78125 -6.234375 L 6.25 -6.25 C 6.269531 -6.25 6.28125 -6.226562 6.28125 -6.1875 C 6.28125 -6.144531 6.269531 -6.125 6.25 -6.125 C 6.019531 -6.125 5.847656 -6.101562 5.734375 -6.0625 C 5.628906 -6.03125 5.554688 -5.96875 5.515625 -5.875 C 5.484375 -5.78125 5.46875 -5.632812 5.46875 -5.4375 L 5.46875 -0.8125 C 5.46875 -0.613281 5.492188 -0.472656 5.546875 -0.390625 C 5.597656 -0.304688 5.679688 -0.253906 5.796875 -0.234375 C 5.910156 -0.210938 6.101562 -0.203125 6.375 -0.203125 L 7.578125 -0.203125 C 7.878906 -0.203125 8.078125 -0.210938 8.171875 -0.234375 C 8.273438 -0.253906 8.335938 -0.300781 8.359375 -0.375 C 8.390625 -0.445312 8.40625 -0.597656 8.40625 -0.828125 L 8.40625 -5.4375 C 8.40625 -5.632812 8.382812 -5.78125 8.34375 -5.875 C 8.3125 -5.96875 8.242188 -6.03125 8.140625 -6.0625 C 8.035156 -6.101562 7.867188 -6.125 7.640625 -6.125 C 7.617188 -6.125 7.609375 -6.144531 7.609375 -6.1875 C 7.609375 -6.226562 7.617188 -6.25 7.640625 -6.25 L 8.09375 -6.234375 C 8.363281 -6.222656 8.582031 -6.21875 8.75 -6.21875 C 8.925781 -6.21875 9.15625 -6.222656 9.4375 -6.234375 L 9.9375 -6.25 C 9.945312 -6.25 9.953125 -6.226562 9.953125 -6.1875 C 9.953125 -6.144531 9.945312 -6.125 9.9375 -6.125 C 9.675781 -6.125 9.484375 -6.101562 9.359375 -6.0625 C 9.242188 -6.03125 9.160156 -5.96875 9.109375 -5.875 C 9.066406 -5.78125 9.046875 -5.632812 9.046875 -5.4375 L 9.046875 -0.8125 C 9.046875 -0.5625 9.054688 -0.394531 9.078125 -0.3125 C 9.109375 -0.226562 9.171875 -0.175781 9.265625 -0.15625 C 9.359375 -0.132812 9.539062 -0.125 9.8125 -0.125 C 9.863281 -0.125 9.894531 -0.117188 9.90625 -0.109375 C 9.914062 -0.0976562 9.921875 -0.0625 9.921875 0 L 9.921875 0.296875 C 9.910156 0.628906 9.90625 1.15625 9.90625 1.875 C 9.90625 1.90625 9.882812 1.921875 9.84375 1.921875 C 9.800781 1.921875 9.78125 1.90625 9.78125 1.875 C 9.78125 1.1875 9.664062 0.703125 9.4375 0.421875 C 9.21875 0.140625 8.84375 0 8.3125 0 Z M 0.34375 0 "/></g></g></g><g fill="#f6f7eb" fill-opacity="1"><g transform="translate(158.887723, 239.180727)"><g><path d="M 6.984375 -0.125 C 7.015625 -0.125 7.03125 -0.101562 7.03125 -0.0625 C 7.03125 -0.0195312 7.015625 0 6.984375 0 C 6.859375 0 6.664062 -0.00390625 6.40625 -0.015625 C 6.132812 -0.0351562 5.9375 -0.046875 5.8125 -0.046875 C 5.664062 -0.046875 5.484375 -0.0351562 5.265625 -0.015625 C 5.046875 -0.00390625 4.878906 0 4.765625 0 C 4.742188 0 4.734375 -0.0195312 4.734375 -0.0625 C 4.734375 -0.101562 4.742188 -0.125 4.765625 -0.125 C 5.015625 -0.125 5.195312 -0.144531 5.3125 -0.1875 C 5.425781 -0.238281 5.484375 -0.320312 5.484375 -0.4375 C 5.484375 -0.519531 5.4375 -0.660156 5.34375 -0.859375 L 4.203125 -3.3125 L 2.3125 -3.3125 L 1.453125 -1.265625 C 1.359375 -1.046875 1.3125 -0.859375 1.3125 -0.703125 C 1.3125 -0.316406 1.640625 -0.125 2.296875 -0.125 C 2.328125 -0.125 2.34375 -0.101562 2.34375 -0.0625 C 2.34375 -0.0195312 2.328125 0 2.296875 0 C 2.171875 0 1.992188 -0.00390625 1.765625 -0.015625 C 1.515625 -0.0351562 1.296875 -0.046875 1.109375 -0.046875 C 0.929688 -0.046875 0.734375 -0.0351562 0.515625 -0.015625 C 0.304688 -0.00390625 0.140625 0 0.015625 0 C -0.0234375 0 -0.046875 -0.0195312 -0.046875 -0.0625 C -0.046875 -0.101562 -0.0234375 -0.125 0.015625 -0.125 C 0.203125 -0.125 0.359375 -0.15625 0.484375 -0.21875 C 0.617188 -0.289062 0.742188 -0.414062 0.859375 -0.59375 C 0.972656 -0.769531 1.097656 -1.023438 1.234375 -1.359375 L 3.34375 -6.34375 C 3.363281 -6.363281 3.390625 -6.375 3.421875 -6.375 C 3.453125 -6.375 3.472656 -6.363281 3.484375 -6.34375 L 5.84375 -1.375 C 6.070312 -0.875 6.265625 -0.539062 6.421875 -0.375 C 6.578125 -0.207031 6.765625 -0.125 6.984375 -0.125 Z M 2.40625 -3.515625 L 4.09375 -3.515625 L 3.203125 -5.421875 Z M 2.40625 -3.515625 "/></g></g></g><g fill="#f6f7eb" fill-opacity="1"><g transform="translate(168.764969, 239.180727)"><g><path d="M 4.15625 -6.359375 C 4.46875 -6.359375 4.785156 -6.328125 5.109375 -6.265625 C 5.441406 -6.210938 5.707031 -6.128906 5.90625 -6.015625 C 5.957031 -5.984375 5.992188 -5.953125 6.015625 -5.921875 C 6.035156 -5.890625 6.046875 -5.835938 6.046875 -5.765625 L 6.15625 -4.65625 C 6.15625 -4.632812 6.140625 -4.617188 6.109375 -4.609375 C 6.078125 -4.609375 6.054688 -4.617188 6.046875 -4.640625 C 5.898438 -5.148438 5.628906 -5.523438 5.234375 -5.765625 C 4.835938 -6.015625 4.347656 -6.140625 3.765625 -6.140625 C 3.253906 -6.140625 2.804688 -6.023438 2.421875 -5.796875 C 2.046875 -5.578125 1.753906 -5.265625 1.546875 -4.859375 C 1.335938 -4.453125 1.234375 -3.984375 1.234375 -3.453125 C 1.234375 -2.828125 1.363281 -2.25 1.625 -1.71875 C 1.882812 -1.195312 2.226562 -0.78125 2.65625 -0.46875 C 3.09375 -0.164062 3.566406 -0.015625 4.078125 -0.015625 C 4.554688 -0.015625 4.972656 -0.144531 5.328125 -0.40625 C 5.679688 -0.675781 5.953125 -1.082031 6.140625 -1.625 C 6.140625 -1.644531 6.15625 -1.65625 6.1875 -1.65625 C 6.195312 -1.65625 6.210938 -1.648438 6.234375 -1.640625 C 6.253906 -1.640625 6.265625 -1.632812 6.265625 -1.625 L 6.125 -0.484375 C 6.101562 -0.410156 6.082031 -0.359375 6.0625 -0.328125 C 6.050781 -0.304688 6.015625 -0.285156 5.953125 -0.265625 C 5.359375 -0.00390625 4.726562 0.125 4.0625 0.125 C 3.257812 0.125 2.585938 -0.0351562 2.046875 -0.359375 C 1.515625 -0.679688 1.117188 -1.09375 0.859375 -1.59375 C 0.609375 -2.09375 0.484375 -2.625 0.484375 -3.1875 C 0.484375 -3.789062 0.65625 -4.335938 1 -4.828125 C 1.34375 -5.316406 1.789062 -5.691406 2.34375 -5.953125 C 2.90625 -6.222656 3.507812 -6.359375 4.15625 -6.359375 Z M 4.15625 -6.359375 "/></g></g></g><g fill="#f6f7eb" fill-opacity="1"><g transform="translate(178.312351, 239.180727)"><g><path d="M 0.5625 0.125 C 0.414062 0.125 0.296875 0.09375 0.203125 0.03125 C 0.117188 -0.03125 0.078125 -0.125 0.078125 -0.25 C 0.078125 -0.457031 0.222656 -0.5625 0.515625 -0.5625 L 0.71875 -0.5625 C 1.101562 -0.5625 1.429688 -0.804688 1.703125 -1.296875 C 1.984375 -1.796875 2.191406 -2.40625 2.328125 -3.125 C 2.472656 -3.851562 2.546875 -4.554688 2.546875 -5.234375 C 2.546875 -5.546875 2.476562 -5.769531 2.34375 -5.90625 C 2.21875 -6.050781 1.957031 -6.125 1.5625 -6.125 C 1.539062 -6.125 1.53125 -6.144531 1.53125 -6.1875 C 1.53125 -6.226562 1.539062 -6.25 1.5625 -6.25 L 6.34375 -6.25 C 6.363281 -6.25 6.375 -6.226562 6.375 -6.1875 C 6.375 -6.144531 6.363281 -6.125 6.34375 -6.125 C 6.082031 -6.125 5.890625 -6.101562 5.765625 -6.0625 C 5.648438 -6.03125 5.570312 -5.96875 5.53125 -5.875 C 5.488281 -5.78125 5.46875 -5.632812 5.46875 -5.4375 L 5.46875 -0.8125 C 5.46875 -0.613281 5.488281 -0.460938 5.53125 -0.359375 C 5.570312 -0.265625 5.648438 -0.203125 5.765625 -0.171875 C 5.890625 -0.140625 6.082031 -0.125 6.34375 -0.125 C 6.363281 -0.125 6.375 -0.101562 6.375 -0.0625 C 6.375 -0.0195312 6.363281 0 6.34375 0 C 6.132812 0 5.96875 -0.00390625 5.84375 -0.015625 L 4.453125 -0.015625 C 4.328125 -0.00390625 4.160156 0 3.953125 0 C 3.941406 0 3.9375 -0.0195312 3.9375 -0.0625 C 3.9375 -0.101562 3.941406 -0.125 3.953125 -0.125 C 4.210938 -0.125 4.398438 -0.140625 4.515625 -0.171875 C 4.640625 -0.203125 4.722656 -0.265625 4.765625 -0.359375 C 4.804688 -0.460938 4.828125 -0.613281 4.828125 -0.8125 L 4.828125 -5.40625 C 4.828125 -5.625 4.8125 -5.769531 4.78125 -5.84375 C 4.757812 -5.914062 4.703125 -5.960938 4.609375 -5.984375 C 4.515625 -6.003906 4.328125 -6.015625 4.046875 -6.015625 L 3.53125 -6.015625 C 3.332031 -6.015625 3.179688 -6 3.078125 -5.96875 C 2.984375 -5.9375 2.910156 -5.863281 2.859375 -5.75 C 2.816406 -5.644531 2.796875 -5.472656 2.796875 -5.234375 C 2.796875 -4.554688 2.722656 -3.800781 2.578125 -2.96875 C 2.441406 -2.144531 2.207031 -1.421875 1.875 -0.796875 C 1.550781 -0.179688 1.113281 0.125 0.5625 0.125 Z M 0.5625 0.125 "/></g></g></g><g fill="#f6f7eb" fill-opacity="1"><g transform="translate(187.879726, 239.180727)"><g><path d="M 7.109375 -0.125 C 7.117188 -0.125 7.125 -0.101562 7.125 -0.0625 C 7.125 -0.0195312 7.117188 0 7.109375 0 C 6.898438 0 6.734375 -0.00390625 6.609375 -0.015625 L 5.1875 -0.015625 C 5.070312 -0.00390625 4.910156 0 4.703125 0 C 4.691406 0 4.6875 -0.0195312 4.6875 -0.0625 C 4.6875 -0.101562 4.691406 -0.125 4.703125 -0.125 C 4.960938 -0.125 5.148438 -0.140625 5.265625 -0.171875 C 5.390625 -0.203125 5.472656 -0.265625 5.515625 -0.359375 C 5.566406 -0.460938 5.59375 -0.613281 5.59375 -0.8125 L 5.59375 -4.9375 L 1.875 -0.953125 L 1.875 -0.8125 C 1.875 -0.613281 1.894531 -0.460938 1.9375 -0.359375 C 1.976562 -0.265625 2.054688 -0.203125 2.171875 -0.171875 C 2.296875 -0.140625 2.488281 -0.125 2.75 -0.125 C 2.757812 -0.125 2.765625 -0.101562 2.765625 -0.0625 C 2.765625 -0.0195312 2.757812 0 2.75 0 C 2.539062 0 2.378906 -0.00390625 2.265625 -0.015625 L 0.84375 -0.015625 C 0.726562 -0.00390625 0.5625 0 0.34375 0 C 0.332031 0 0.328125 -0.0195312 0.328125 -0.0625 C 0.328125 -0.101562 0.332031 -0.125 0.34375 -0.125 C 0.601562 -0.125 0.789062 -0.140625 0.90625 -0.171875 C 1.03125 -0.203125 1.113281 -0.265625 1.15625 -0.359375 C 1.207031 -0.460938 1.234375 -0.613281 1.234375 -0.8125 L 1.234375 -5.4375 C 1.234375 -5.632812 1.207031 -5.78125 1.15625 -5.875 C 1.113281 -5.96875 1.03125 -6.03125 0.90625 -6.0625 C 0.789062 -6.101562 0.609375 -6.125 0.359375 -6.125 C 0.347656 -6.125 0.34375 -6.144531 0.34375 -6.1875 C 0.34375 -6.226562 0.347656 -6.25 0.359375 -6.25 L 0.875 -6.234375 C 1.15625 -6.222656 1.378906 -6.21875 1.546875 -6.21875 C 1.734375 -6.21875 1.972656 -6.222656 2.265625 -6.234375 L 2.75 -6.25 C 2.757812 -6.25 2.765625 -6.226562 2.765625 -6.1875 C 2.765625 -6.144531 2.757812 -6.125 2.75 -6.125 C 2.5 -6.125 2.3125 -6.101562 2.1875 -6.0625 C 2.0625 -6.03125 1.976562 -5.960938 1.9375 -5.859375 C 1.894531 -5.765625 1.875 -5.617188 1.875 -5.421875 L 1.875 -1.296875 L 5.59375 -5.265625 L 5.59375 -5.421875 C 5.59375 -5.617188 5.566406 -5.765625 5.515625 -5.859375 C 5.472656 -5.960938 5.390625 -6.03125 5.265625 -6.0625 C 5.148438 -6.101562 4.960938 -6.125 4.703125 -6.125 C 4.691406 -6.125 4.6875 -6.144531 4.6875 -6.1875 C 4.6875 -6.226562 4.691406 -6.25 4.703125 -6.25 L 5.1875 -6.234375 C 5.476562 -6.222656 5.722656 -6.21875 5.921875 -6.21875 C 6.085938 -6.21875 6.316406 -6.222656 6.609375 -6.234375 L 7.109375 -6.25 C 7.117188 -6.25 7.125 -6.226562 7.125 -6.1875 C 7.125 -6.144531 7.117188 -6.125 7.109375 -6.125 C 6.859375 -6.125 6.671875 -6.101562 6.546875 -6.0625 C 6.429688 -6.03125 6.347656 -5.96875 6.296875 -5.875 C 6.253906 -5.78125 6.234375 -5.632812 6.234375 -5.4375 L 6.234375 -0.8125 C 6.234375 -0.613281 6.253906 -0.460938 6.296875 -0.359375 C 6.347656 -0.265625 6.429688 -0.203125 6.546875 -0.171875 C 6.671875 -0.140625 6.859375 -0.125 7.109375 -0.125 Z M 7.109375 -0.125 "/></g></g></g><g fill="#f6f7eb" fill-opacity="1"><g transform="translate(198.206788, 239.180727)"><g><path d="M 3.3125 -3.515625 C 3.84375 -3.472656 4.269531 -3.296875 4.59375 -2.984375 C 4.914062 -2.679688 5.078125 -2.300781 5.078125 -1.84375 C 5.078125 -1.488281 4.988281 -1.164062 4.8125 -0.875 C 4.644531 -0.59375 4.410156 -0.367188 4.109375 -0.203125 C 3.804688 -0.0351562 3.46875 0.046875 3.09375 0.046875 C 2.875 0.046875 2.632812 0.0351562 2.375 0.015625 C 2.28125 0.00390625 2.164062 0 2.03125 0 C 1.90625 -0.0078125 1.769531 -0.015625 1.625 -0.015625 L 0.9375 -0.015625 C 0.820312 -0.00390625 0.65625 0 0.4375 0 C 0.414062 0 0.40625 -0.0195312 0.40625 -0.0625 C 0.40625 -0.101562 0.414062 -0.125 0.4375 -0.125 C 0.6875 -0.125 0.867188 -0.140625 0.984375 -0.171875 C 1.109375 -0.210938 1.191406 -0.28125 1.234375 -0.375 C 1.285156 -0.46875 1.3125 -0.613281 1.3125 -0.8125 L 1.3125 -5.4375 C 1.3125 -5.632812 1.289062 -5.78125 1.25 -5.875 C 1.207031 -5.96875 1.125 -6.03125 1 -6.0625 C 0.875 -6.101562 0.691406 -6.125 0.453125 -6.125 C 0.429688 -6.125 0.421875 -6.144531 0.421875 -6.1875 C 0.421875 -6.226562 0.429688 -6.25 0.453125 -6.25 L 0.9375 -6.234375 C 1.21875 -6.222656 1.445312 -6.21875 1.625 -6.21875 C 1.738281 -6.21875 1.847656 -6.21875 1.953125 -6.21875 C 2.054688 -6.226562 2.144531 -6.238281 2.21875 -6.25 C 2.425781 -6.269531 2.617188 -6.28125 2.796875 -6.28125 C 3.359375 -6.28125 3.78125 -6.15625 4.0625 -5.90625 C 4.34375 -5.664062 4.484375 -5.347656 4.484375 -4.953125 C 4.484375 -4.640625 4.378906 -4.359375 4.171875 -4.109375 C 3.960938 -3.859375 3.675781 -3.660156 3.3125 -3.515625 Z M 2.578125 -6.125 C 2.398438 -6.125 2.269531 -6.109375 2.1875 -6.078125 C 2.101562 -6.054688 2.039062 -5.992188 2 -5.890625 C 1.96875 -5.796875 1.953125 -5.640625 1.953125 -5.421875 L 1.953125 -3.515625 L 2.40625 -3.515625 C 2.882812 -3.515625 3.238281 -3.640625 3.46875 -3.890625 C 3.707031 -4.140625 3.828125 -4.46875 3.828125 -4.875 C 3.828125 -5.25 3.722656 -5.550781 3.515625 -5.78125 C 3.316406 -6.007812 3.003906 -6.125 2.578125 -6.125 Z M 2.9375 -0.140625 C 3.425781 -0.140625 3.785156 -0.265625 4.015625 -0.515625 C 4.253906 -0.765625 4.375 -1.125 4.375 -1.59375 C 4.375 -2.09375 4.222656 -2.5 3.921875 -2.8125 C 3.628906 -3.132812 3.222656 -3.296875 2.703125 -3.296875 C 2.492188 -3.304688 2.242188 -3.300781 1.953125 -3.28125 L 1.953125 -0.8125 C 1.953125 -0.632812 1.972656 -0.5 2.015625 -0.40625 C 2.066406 -0.3125 2.164062 -0.242188 2.3125 -0.203125 C 2.457031 -0.160156 2.664062 -0.140625 2.9375 -0.140625 Z M 2.9375 -0.140625 "/></g></g></g><g fill="#f6f7eb" fill-opacity="1"><g transform="translate(206.644607, 239.180727)"><g><path d="M 7.109375 -0.125 C 7.117188 -0.125 7.125 -0.101562 7.125 -0.0625 C 7.125 -0.0195312 7.117188 0 7.109375 0 C 6.898438 0 6.734375 -0.00390625 6.609375 -0.015625 L 5.1875 -0.015625 C 5.070312 -0.00390625 4.910156 0 4.703125 0 C 4.691406 0 4.6875 -0.0195312 4.6875 -0.0625 C 4.6875 -0.101562 4.691406 -0.125 4.703125 -0.125 C 4.960938 -0.125 5.148438 -0.140625 5.265625 -0.171875 C 5.390625 -0.203125 5.472656 -0.265625 5.515625 -0.359375 C 5.566406 -0.460938 5.59375 -0.613281 5.59375 -0.8125 L 5.59375 -4.9375 L 1.875 -0.953125 L 1.875 -0.8125 C 1.875 -0.613281 1.894531 -0.460938 1.9375 -0.359375 C 1.976562 -0.265625 2.054688 -0.203125 2.171875 -0.171875 C 2.296875 -0.140625 2.488281 -0.125 2.75 -0.125 C 2.757812 -0.125 2.765625 -0.101562 2.765625 -0.0625 C 2.765625 -0.0195312 2.757812 0 2.75 0 C 2.539062 0 2.378906 -0.00390625 2.265625 -0.015625 L 0.84375 -0.015625 C 0.726562 -0.00390625 0.5625 0 0.34375 0 C 0.332031 0 0.328125 -0.0195312 0.328125 -0.0625 C 0.328125 -0.101562 0.332031 -0.125 0.34375 -0.125 C 0.601562 -0.125 0.789062 -0.140625 0.90625 -0.171875 C 1.03125 -0.203125 1.113281 -0.265625 1.15625 -0.359375 C 1.207031 -0.460938 1.234375 -0.613281 1.234375 -0.8125 L 1.234375 -5.4375 C 1.234375 -5.632812 1.207031 -5.78125 1.15625 -5.875 C 1.113281 -5.96875 1.03125 -6.03125 0.90625 -6.0625 C 0.789062 -6.101562 0.609375 -6.125 0.359375 -6.125 C 0.347656 -6.125 0.34375 -6.144531 0.34375 -6.1875 C 0.34375 -6.226562 0.347656 -6.25 0.359375 -6.25 L 0.875 -6.234375 C 1.15625 -6.222656 1.378906 -6.21875 1.546875 -6.21875 C 1.734375 -6.21875 1.972656 -6.222656 2.265625 -6.234375 L 2.75 -6.25 C 2.757812 -6.25 2.765625 -6.226562 2.765625 -6.1875 C 2.765625 -6.144531 2.757812 -6.125 2.75 -6.125 C 2.5 -6.125 2.3125 -6.101562 2.1875 -6.0625 C 2.0625 -6.03125 1.976562 -5.960938 1.9375 -5.859375 C 1.894531 -5.765625 1.875 -5.617188 1.875 -5.421875 L 1.875 -1.296875 L 5.59375 -5.265625 L 5.59375 -5.421875 C 5.59375 -5.617188 5.566406 -5.765625 5.515625 -5.859375 C 5.472656 -5.960938 5.390625 -6.03125 5.265625 -6.0625 C 5.148438 -6.101562 4.960938 -6.125 4.703125 -6.125 C 4.691406 -6.125 4.6875 -6.144531 4.6875 -6.1875 C 4.6875 -6.226562 4.691406 -6.25 4.703125 -6.25 L 5.1875 -6.234375 C 5.476562 -6.222656 5.722656 -6.21875 5.921875 -6.21875 C 6.085938 -6.21875 6.316406 -6.222656 6.609375 -6.234375 L 7.109375 -6.25 C 7.117188 -6.25 7.125 -6.226562 7.125 -6.1875 C 7.125 -6.144531 7.117188 -6.125 7.109375 -6.125 C 6.859375 -6.125 6.671875 -6.101562 6.546875 -6.0625 C 6.429688 -6.03125 6.347656 -5.96875 6.296875 -5.875 C 6.253906 -5.78125 6.234375 -5.632812 6.234375 -5.4375 L 6.234375 -0.8125 C 6.234375 -0.613281 6.253906 -0.460938 6.296875 -0.359375 C 6.347656 -0.265625 6.429688 -0.203125 6.546875 -0.171875 C 6.671875 -0.140625 6.859375 -0.125 7.109375 -0.125 Z M 7.109375 -0.125 "/></g></g></g><g fill="#f6f7eb" fill-opacity="1"><g transform="translate(216.971675, 239.180727)"><g><path d="M 6.34375 -0.125 C 6.363281 -0.125 6.375 -0.101562 6.375 -0.0625 C 6.375 -0.0195312 6.363281 0 6.34375 0 C 6.175781 0 6.039062 -0.00390625 5.9375 -0.015625 L 4.625 -0.015625 C 4.5 -0.00390625 4.332031 0 4.125 0 C 4.113281 0 4.109375 -0.0195312 4.109375 -0.0625 C 4.109375 -0.101562 4.113281 -0.125 4.125 -0.125 C 4.3125 -0.125 4.441406 -0.132812 4.515625 -0.15625 C 4.597656 -0.1875 4.640625 -0.234375 4.640625 -0.296875 C 4.640625 -0.347656 4.609375 -0.421875 4.546875 -0.515625 L 3.03125 -2.8125 L 1.765625 -1.015625 C 1.597656 -0.796875 1.515625 -0.613281 1.515625 -0.46875 C 1.515625 -0.238281 1.710938 -0.125 2.109375 -0.125 C 2.128906 -0.125 2.140625 -0.101562 2.140625 -0.0625 C 2.140625 -0.0195312 2.128906 0 2.109375 0 C 1.910156 0 1.757812 -0.00390625 1.65625 -0.015625 L 0.546875 -0.015625 C 0.472656 -0.00390625 0.347656 0 0.171875 0 C 0.148438 0 0.140625 -0.0195312 0.140625 -0.0625 C 0.140625 -0.101562 0.148438 -0.125 0.171875 -0.125 C 0.628906 -0.125 1.082031 -0.425781 1.53125 -1.03125 L 2.9375 -2.953125 L 1.328125 -5.40625 C 1.148438 -5.664062 0.976562 -5.847656 0.8125 -5.953125 C 0.644531 -6.066406 0.441406 -6.125 0.203125 -6.125 C 0.191406 -6.125 0.1875 -6.144531 0.1875 -6.1875 C 0.1875 -6.226562 0.191406 -6.25 0.203125 -6.25 L 0.59375 -6.234375 C 0.757812 -6.222656 0.882812 -6.21875 0.96875 -6.21875 C 1.195312 -6.21875 1.472656 -6.222656 1.796875 -6.234375 L 2.3125 -6.25 C 2.332031 -6.25 2.34375 -6.226562 2.34375 -6.1875 C 2.34375 -6.144531 2.332031 -6.125 2.3125 -6.125 C 2.132812 -6.125 2.003906 -6.109375 1.921875 -6.078125 C 1.835938 -6.054688 1.796875 -6.015625 1.796875 -5.953125 C 1.796875 -5.898438 1.828125 -5.828125 1.890625 -5.734375 L 3.375 -3.5 L 4.546875 -5.15625 C 4.722656 -5.414062 4.8125 -5.625 4.8125 -5.78125 C 4.8125 -6.007812 4.625 -6.125 4.25 -6.125 C 4.226562 -6.125 4.21875 -6.144531 4.21875 -6.1875 C 4.21875 -6.226562 4.226562 -6.25 4.25 -6.25 L 4.703125 -6.234375 C 4.953125 -6.222656 5.179688 -6.21875 5.390625 -6.21875 C 5.503906 -6.21875 5.644531 -6.222656 5.8125 -6.234375 L 6.1875 -6.25 C 6.195312 -6.25 6.203125 -6.226562 6.203125 -6.1875 C 6.203125 -6.144531 6.195312 -6.125 6.1875 -6.125 C 5.957031 -6.125 5.722656 -6.039062 5.484375 -5.875 C 5.242188 -5.707031 5.003906 -5.460938 4.765625 -5.140625 L 3.453125 -3.34375 L 5.125 -0.828125 C 5.300781 -0.566406 5.476562 -0.382812 5.65625 -0.28125 C 5.84375 -0.175781 6.070312 -0.125 6.34375 -0.125 Z M 6.34375 -0.125 "/></g></g></g><g fill="#f6f7eb" fill-opacity="1"><g transform="translate(226.349124, 239.180727)"><g/></g></g><g fill="#f6f7eb" fill-opacity="1"><g transform="translate(231.54822, 239.180727)"><g><path d="M 0.5625 0.125 C 0.414062 0.125 0.296875 0.09375 0.203125 0.03125 C 0.117188 -0.03125 0.078125 -0.125 0.078125 -0.25 C 0.078125 -0.457031 0.222656 -0.5625 0.515625 -0.5625 L 0.71875 -0.5625 C 1.101562 -0.5625 1.429688 -0.804688 1.703125 -1.296875 C 1.984375 -1.796875 2.191406 -2.40625 2.328125 -3.125 C 2.472656 -3.851562 2.546875 -4.554688 2.546875 -5.234375 C 2.546875 -5.546875 2.476562 -5.769531 2.34375 -5.90625 C 2.21875 -6.050781 1.957031 -6.125 1.5625 -6.125 C 1.539062 -6.125 1.53125 -6.144531 1.53125 -6.1875 C 1.53125 -6.226562 1.539062 -6.25 1.5625 -6.25 L 6.34375 -6.25 C 6.363281 -6.25 6.375 -6.226562 6.375 -6.1875 C 6.375 -6.144531 6.363281 -6.125 6.34375 -6.125 C 6.082031 -6.125 5.890625 -6.101562 5.765625 -6.0625 C 5.648438 -6.03125 5.570312 -5.96875 5.53125 -5.875 C 5.488281 -5.78125 5.46875 -5.632812 5.46875 -5.4375 L 5.46875 -0.8125 C 5.46875 -0.613281 5.488281 -0.460938 5.53125 -0.359375 C 5.570312 -0.265625 5.648438 -0.203125 5.765625 -0.171875 C 5.890625 -0.140625 6.082031 -0.125 6.34375 -0.125 C 6.363281 -0.125 6.375 -0.101562 6.375 -0.0625 C 6.375 -0.0195312 6.363281 0 6.34375 0 C 6.132812 0 5.96875 -0.00390625 5.84375 -0.015625 L 4.453125 -0.015625 C 4.328125 -0.00390625 4.160156 0 3.953125 0 C 3.941406 0 3.9375 -0.0195312 3.9375 -0.0625 C 3.9375 -0.101562 3.941406 -0.125 3.953125 -0.125 C 4.210938 -0.125 4.398438 -0.140625 4.515625 -0.171875 C 4.640625 -0.203125 4.722656 -0.265625 4.765625 -0.359375 C 4.804688 -0.460938 4.828125 -0.613281 4.828125 -0.8125 L 4.828125 -5.40625 C 4.828125 -5.625 4.8125 -5.769531 4.78125 -5.84375 C 4.757812 -5.914062 4.703125 -5.960938 4.609375 -5.984375 C 4.515625 -6.003906 4.328125 -6.015625 4.046875 -6.015625 L 3.53125 -6.015625 C 3.332031 -6.015625 3.179688 -6 3.078125 -5.96875 C 2.984375 -5.9375 2.910156 -5.863281 2.859375 -5.75 C 2.816406 -5.644531 2.796875 -5.472656 2.796875 -5.234375 C 2.796875 -4.554688 2.722656 -3.800781 2.578125 -2.96875 C 2.441406 -2.144531 2.207031 -1.421875 1.875 -0.796875 C 1.550781 -0.179688 1.113281 0.125 0.5625 0.125 Z M 0.5625 0.125 "/></g></g></g><g fill="#f6f7eb" fill-opacity="1"><g transform="translate(241.115594, 239.180727)"><g><path d="M 6.828125 -6.359375 C 7.429688 -6.359375 7.960938 -6.207031 8.421875 -5.90625 C 8.890625 -5.613281 9.25 -5.222656 9.5 -4.734375 C 9.75 -4.253906 9.875 -3.738281 9.875 -3.1875 C 9.875 -2.582031 9.71875 -2.023438 9.40625 -1.515625 C 9.09375 -1.015625 8.675781 -0.613281 8.15625 -0.3125 C 7.632812 -0.0195312 7.070312 0.125 6.46875 0.125 C 5.863281 0.125 5.332031 -0.0195312 4.875 -0.3125 C 4.414062 -0.601562 4.054688 -0.992188 3.796875 -1.484375 C 3.546875 -1.984375 3.421875 -2.53125 3.421875 -3.125 L 3.421875 -3.15625 L 1.875 -3.15625 L 1.875 -0.8125 C 1.875 -0.613281 1.894531 -0.460938 1.9375 -0.359375 C 1.976562 -0.265625 2.054688 -0.203125 2.171875 -0.171875 C 2.296875 -0.140625 2.488281 -0.125 2.75 -0.125 C 2.757812 -0.125 2.765625 -0.101562 2.765625 -0.0625 C 2.765625 -0.0195312 2.757812 0 2.75 0 C 2.539062 0 2.378906 -0.00390625 2.265625 -0.015625 L 0.84375 -0.015625 C 0.726562 -0.00390625 0.5625 0 0.34375 0 C 0.332031 0 0.328125 -0.0195312 0.328125 -0.0625 C 0.328125 -0.101562 0.332031 -0.125 0.34375 -0.125 C 0.601562 -0.125 0.789062 -0.140625 0.90625 -0.171875 C 1.03125 -0.203125 1.113281 -0.265625 1.15625 -0.359375 C 1.207031 -0.460938 1.234375 -0.613281 1.234375 -0.8125 L 1.234375 -5.4375 C 1.234375 -5.632812 1.207031 -5.78125 1.15625 -5.875 C 1.113281 -5.96875 1.03125 -6.03125 0.90625 -6.0625 C 0.789062 -6.101562 0.609375 -6.125 0.359375 -6.125 C 0.347656 -6.125 0.34375 -6.144531 0.34375 -6.1875 C 0.34375 -6.226562 0.347656 -6.25 0.359375 -6.25 L 0.875 -6.234375 C 1.15625 -6.222656 1.378906 -6.21875 1.546875 -6.21875 C 1.734375 -6.21875 1.972656 -6.222656 2.265625 -6.234375 L 2.75 -6.25 C 2.757812 -6.25 2.765625 -6.226562 2.765625 -6.1875 C 2.765625 -6.144531 2.757812 -6.125 2.75 -6.125 C 2.5 -6.125 2.3125 -6.101562 2.1875 -6.0625 C 2.0625 -6.03125 1.976562 -5.960938 1.9375 -5.859375 C 1.894531 -5.765625 1.875 -5.617188 1.875 -5.421875 L 1.875 -3.359375 L 3.4375 -3.359375 C 3.46875 -3.992188 3.65625 -4.535156 4 -4.984375 C 4.34375 -5.441406 4.769531 -5.785156 5.28125 -6.015625 C 5.789062 -6.242188 6.304688 -6.359375 6.828125 -6.359375 Z M 6.8125 -0.09375 C 7.238281 -0.09375 7.625 -0.203125 7.96875 -0.421875 C 8.3125 -0.640625 8.582031 -0.960938 8.78125 -1.390625 C 8.976562 -1.816406 9.078125 -2.320312 9.078125 -2.90625 C 9.078125 -3.53125 8.960938 -4.085938 8.734375 -4.578125 C 8.515625 -5.066406 8.203125 -5.445312 7.796875 -5.71875 C 7.390625 -5.988281 6.914062 -6.125 6.375 -6.125 C 5.675781 -6.125 5.128906 -5.882812 4.734375 -5.40625 C 4.347656 -4.9375 4.15625 -4.289062 4.15625 -3.46875 C 4.15625 -2.84375 4.265625 -2.269531 4.484375 -1.75 C 4.710938 -1.238281 5.03125 -0.832031 5.4375 -0.53125 C 5.84375 -0.238281 6.300781 -0.09375 6.8125 -0.09375 Z M 6.8125 -0.09375 "/></g></g></g><g fill="#f6f7eb" fill-opacity="1"><g transform="translate(254.331528, 239.180727)"><g><path d="M 6.59375 -0.125 C 6.65625 -0.125 6.6875 -0.117188 6.6875 -0.109375 C 6.695312 -0.0976562 6.703125 -0.0625 6.703125 0 C 6.703125 0.03125 6.695312 0.128906 6.6875 0.296875 C 6.644531 0.660156 6.625 1.113281 6.625 1.65625 C 6.625 1.6875 6.601562 1.703125 6.5625 1.703125 C 6.519531 1.703125 6.5 1.6875 6.5 1.65625 C 6.5 1.082031 6.367188 0.660156 6.109375 0.390625 C 5.859375 0.128906 5.453125 0 4.890625 0 L 1.765625 0 C 1.335938 0 1.003906 0.125 0.765625 0.375 C 0.535156 0.625 0.421875 1.050781 0.421875 1.65625 C 0.421875 1.6875 0.398438 1.703125 0.359375 1.703125 C 0.316406 1.703125 0.296875 1.6875 0.296875 1.65625 C 0.296875 1.207031 0.269531 0.769531 0.21875 0.34375 C 0.195312 0.21875 0.1875 0.0976562 0.1875 -0.015625 C 0.1875 -0.0664062 0.191406 -0.0976562 0.203125 -0.109375 C 0.210938 -0.117188 0.242188 -0.125 0.296875 -0.125 C 0.804688 -0.125 1.238281 -0.4375 1.59375 -1.0625 C 1.957031 -1.6875 2.226562 -2.410156 2.40625 -3.234375 C 2.582031 -4.066406 2.671875 -4.765625 2.671875 -5.328125 C 2.671875 -5.515625 2.648438 -5.660156 2.609375 -5.765625 C 2.566406 -5.878906 2.46875 -5.96875 2.3125 -6.03125 C 2.164062 -6.09375 1.945312 -6.125 1.65625 -6.125 C 1.632812 -6.125 1.625 -6.144531 1.625 -6.1875 C 1.625 -6.226562 1.632812 -6.25 1.65625 -6.25 L 6.40625 -6.25 C 6.425781 -6.25 6.4375 -6.226562 6.4375 -6.1875 C 6.4375 -6.144531 6.425781 -6.125 6.40625 -6.125 C 6.15625 -6.125 5.96875 -6.101562 5.84375 -6.0625 C 5.726562 -6.03125 5.648438 -5.96875 5.609375 -5.875 C 5.566406 -5.78125 5.546875 -5.632812 5.546875 -5.4375 L 5.546875 -0.8125 C 5.546875 -0.550781 5.554688 -0.378906 5.578125 -0.296875 C 5.609375 -0.222656 5.6875 -0.175781 5.8125 -0.15625 C 5.9375 -0.132812 6.195312 -0.125 6.59375 -0.125 Z M 4.890625 -5.421875 C 4.890625 -5.648438 4.875 -5.800781 4.84375 -5.875 C 4.820312 -5.945312 4.765625 -5.988281 4.671875 -6 C 4.585938 -6.019531 4.398438 -6.03125 4.109375 -6.03125 L 3.625 -6.03125 C 3.414062 -6.03125 3.269531 -6 3.1875 -5.9375 C 3.113281 -5.882812 3.0625 -5.785156 3.03125 -5.640625 C 3.007812 -5.503906 2.984375 -5.242188 2.953125 -4.859375 C 2.910156 -4.460938 2.832031 -3.96875 2.71875 -3.375 C 2.601562 -2.78125 2.425781 -2.175781 2.1875 -1.5625 C 1.957031 -0.945312 1.675781 -0.5 1.34375 -0.21875 L 4.0625 -0.21875 C 4.363281 -0.21875 4.5625 -0.222656 4.65625 -0.234375 C 4.757812 -0.253906 4.820312 -0.300781 4.84375 -0.375 C 4.875 -0.445312 4.890625 -0.597656 4.890625 -0.828125 Z M 4.890625 -5.421875 "/></g></g></g><g fill="#f6f7eb" fill-opacity="1"><g transform="translate(264.158798, 239.180727)"><g><path d="M 4.75 -1.484375 C 4.75 -1.503906 4.765625 -1.515625 4.796875 -1.515625 C 4.804688 -1.515625 4.820312 -1.507812 4.84375 -1.5 C 4.863281 -1.488281 4.875 -1.476562 4.875 -1.46875 C 4.8125 -1.050781 4.78125 -0.613281 4.78125 -0.15625 C 4.78125 -0.09375 4.765625 -0.0507812 4.734375 -0.03125 C 4.710938 -0.0078125 4.675781 0 4.625 0 L 0.4375 0 C 0.414062 0 0.40625 -0.0195312 0.40625 -0.0625 C 0.40625 -0.101562 0.414062 -0.125 0.4375 -0.125 C 0.6875 -0.125 0.867188 -0.140625 0.984375 -0.171875 C 1.097656 -0.203125 1.175781 -0.265625 1.21875 -0.359375 C 1.269531 -0.460938 1.296875 -0.613281 1.296875 -0.8125 L 1.296875 -5.4375 C 1.296875 -5.632812 1.269531 -5.78125 1.21875 -5.875 C 1.175781 -5.96875 1.097656 -6.03125 0.984375 -6.0625 C 0.867188 -6.101562 0.6875 -6.125 0.4375 -6.125 C 0.414062 -6.125 0.40625 -6.144531 0.40625 -6.1875 C 0.40625 -6.226562 0.414062 -6.25 0.4375 -6.25 L 4.453125 -6.25 C 4.515625 -6.25 4.546875 -6.21875 4.546875 -6.15625 L 4.5625 -4.9375 C 4.5625 -4.914062 4.539062 -4.898438 4.5 -4.890625 C 4.46875 -4.890625 4.453125 -4.898438 4.453125 -4.921875 C 4.429688 -5.273438 4.320312 -5.550781 4.125 -5.75 C 3.9375 -5.945312 3.679688 -6.046875 3.359375 -6.046875 L 2.75 -6.046875 C 2.519531 -6.046875 2.347656 -6.023438 2.234375 -5.984375 C 2.117188 -5.953125 2.039062 -5.890625 2 -5.796875 C 1.957031 -5.703125 1.9375 -5.566406 1.9375 -5.390625 L 1.9375 -3.359375 L 3.15625 -3.359375 C 3.476562 -3.359375 3.707031 -3.410156 3.84375 -3.515625 C 3.976562 -3.628906 4.046875 -3.8125 4.046875 -4.0625 C 4.046875 -4.070312 4.066406 -4.078125 4.109375 -4.078125 C 4.148438 -4.078125 4.171875 -4.070312 4.171875 -4.0625 L 4.15625 -3.25 C 4.15625 -3.050781 4.160156 -2.90625 4.171875 -2.8125 L 4.1875 -2.328125 C 4.1875 -2.316406 4.164062 -2.3125 4.125 -2.3125 C 4.082031 -2.3125 4.0625 -2.316406 4.0625 -2.328125 C 4.0625 -2.617188 3.988281 -2.828125 3.84375 -2.953125 C 3.695312 -3.085938 3.457031 -3.15625 3.125 -3.15625 L 1.9375 -3.15625 L 1.9375 -0.84375 C 1.9375 -0.65625 1.957031 -0.519531 2 -0.4375 C 2.039062 -0.351562 2.113281 -0.289062 2.21875 -0.25 C 2.320312 -0.21875 2.488281 -0.203125 2.71875 -0.203125 L 3.515625 -0.203125 C 3.835938 -0.203125 4.101562 -0.316406 4.3125 -0.546875 C 4.53125 -0.773438 4.675781 -1.085938 4.75 -1.484375 Z M 4.75 -1.484375 "/></g></g></g><g fill="#f6f7eb" fill-opacity="1"><g transform="translate(272.386699, 239.180727)"><g><path d="M 3.734375 -6.734375 C 3.503906 -6.734375 3.28125 -6.773438 3.0625 -6.859375 C 2.851562 -6.941406 2.679688 -7.050781 2.546875 -7.1875 C 2.421875 -7.332031 2.359375 -7.484375 2.359375 -7.640625 C 2.359375 -7.734375 2.382812 -7.804688 2.4375 -7.859375 C 2.488281 -7.910156 2.554688 -7.9375 2.640625 -7.9375 C 2.765625 -7.9375 2.851562 -7.894531 2.90625 -7.8125 C 2.957031 -7.738281 3.003906 -7.617188 3.046875 -7.453125 C 3.171875 -7.046875 3.398438 -6.84375 3.734375 -6.84375 C 3.921875 -6.84375 4.070312 -6.898438 4.1875 -7.015625 C 4.3125 -7.128906 4.394531 -7.273438 4.4375 -7.453125 C 4.488281 -7.617188 4.539062 -7.738281 4.59375 -7.8125 C 4.644531 -7.894531 4.726562 -7.9375 4.84375 -7.9375 C 5.03125 -7.9375 5.125 -7.832031 5.125 -7.625 C 5.125 -7.476562 5.054688 -7.332031 4.921875 -7.1875 C 4.796875 -7.050781 4.625 -6.941406 4.40625 -6.859375 C 4.195312 -6.773438 3.972656 -6.734375 3.734375 -6.734375 Z M 7.109375 -0.125 C 7.117188 -0.125 7.125 -0.101562 7.125 -0.0625 C 7.125 -0.0195312 7.117188 0 7.109375 0 C 6.898438 0 6.734375 -0.00390625 6.609375 -0.015625 L 5.1875 -0.015625 C 5.070312 -0.00390625 4.910156 0 4.703125 0 C 4.691406 0 4.6875 -0.0195312 4.6875 -0.0625 C 4.6875 -0.101562 4.691406 -0.125 4.703125 -0.125 C 4.960938 -0.125 5.148438 -0.140625 5.265625 -0.171875 C 5.390625 -0.203125 5.472656 -0.265625 5.515625 -0.359375 C 5.566406 -0.460938 5.59375 -0.613281 5.59375 -0.8125 L 5.59375 -4.9375 L 1.875 -0.953125 L 1.875 -0.8125 C 1.875 -0.613281 1.894531 -0.460938 1.9375 -0.359375 C 1.976562 -0.265625 2.054688 -0.203125 2.171875 -0.171875 C 2.296875 -0.140625 2.488281 -0.125 2.75 -0.125 C 2.757812 -0.125 2.765625 -0.101562 2.765625 -0.0625 C 2.765625 -0.0195312 2.757812 0 2.75 0 C 2.539062 0 2.378906 -0.00390625 2.265625 -0.015625 L 0.84375 -0.015625 C 0.726562 -0.00390625 0.5625 0 0.34375 0 C 0.332031 0 0.328125 -0.0195312 0.328125 -0.0625 C 0.328125 -0.101562 0.332031 -0.125 0.34375 -0.125 C 0.601562 -0.125 0.789062 -0.140625 0.90625 -0.171875 C 1.03125 -0.203125 1.113281 -0.265625 1.15625 -0.359375 C 1.207031 -0.460938 1.234375 -0.613281 1.234375 -0.8125 L 1.234375 -5.4375 C 1.234375 -5.632812 1.207031 -5.78125 1.15625 -5.875 C 1.113281 -5.96875 1.03125 -6.03125 0.90625 -6.0625 C 0.789062 -6.101562 0.609375 -6.125 0.359375 -6.125 C 0.347656 -6.125 0.34375 -6.144531 0.34375 -6.1875 C 0.34375 -6.226562 0.347656 -6.25 0.359375 -6.25 L 0.875 -6.234375 C 1.15625 -6.222656 1.378906 -6.21875 1.546875 -6.21875 C 1.734375 -6.21875 1.972656 -6.222656 2.265625 -6.234375 L 2.75 -6.25 C 2.757812 -6.25 2.765625 -6.226562 2.765625 -6.1875 C 2.765625 -6.144531 2.757812 -6.125 2.75 -6.125 C 2.5 -6.125 2.3125 -6.101562 2.1875 -6.0625 C 2.0625 -6.03125 1.976562 -5.960938 1.9375 -5.859375 C 1.894531 -5.765625 1.875 -5.617188 1.875 -5.421875 L 1.875 -1.296875 L 5.59375 -5.265625 L 5.59375 -5.421875 C 5.59375 -5.617188 5.566406 -5.765625 5.515625 -5.859375 C 5.472656 -5.960938 5.390625 -6.03125 5.265625 -6.0625 C 5.148438 -6.101562 4.960938 -6.125 4.703125 -6.125 C 4.691406 -6.125 4.6875 -6.144531 4.6875 -6.1875 C 4.6875 -6.226562 4.691406 -6.25 4.703125 -6.25 L 5.1875 -6.234375 C 5.476562 -6.222656 5.722656 -6.21875 5.921875 -6.21875 C 6.085938 -6.21875 6.316406 -6.222656 6.609375 -6.234375 L 7.109375 -6.25 C 7.117188 -6.25 7.125 -6.226562 7.125 -6.1875 C 7.125 -6.144531 7.117188 -6.125 7.109375 -6.125 C 6.859375 -6.125 6.671875 -6.101562 6.546875 -6.0625 C 6.429688 -6.03125 6.347656 -5.96875 6.296875 -5.875 C 6.253906 -5.78125 6.234375 -5.632812 6.234375 -5.4375 L 6.234375 -0.8125 C 6.234375 -0.613281 6.253906 -0.460938 6.296875 -0.359375 C 6.347656 -0.265625 6.429688 -0.203125 6.546875 -0.171875 C 6.671875 -0.140625 6.859375 -0.125 7.109375 -0.125 Z M 7.109375 -0.125 "/></g></g></g></svg>