<svg width="25" height="24" viewBox="0 0 25 24" fill="none" xmlns="http://www.w3.org/2000/svg">
<g id="Frame">
<path id="Vector" d="M6.60999 3C4.96498 3 3.60999 4.35499 3.60999 6C3.60999 7.64501 4.96498 9 6.60999 9C7.90315 9 9.00513 8.15733 9.42249 7H17.61C18.7267 7 19.61 7.88333 19.61 9C19.61 10.1167 18.7267 11 17.61 11H7.60999C5.41266 11 3.60999 12.8027 3.60999 15V16H3.81311C4.26947 17.7064 5.7664 19 7.60999 19H15.7975C16.2149 20.1573 17.3168 21 18.61 21C20.255 21 21.61 19.645 21.61 18C21.61 16.355 20.255 15 18.61 15C17.3168 15 16.2149 15.8427 15.7975 17H7.60999C6.49332 17 5.60999 16.1167 5.60999 15C5.60999 13.8833 6.49332 13 7.60999 13H17.61C19.4536 13 20.9505 11.7064 21.4069 10H21.61V9C21.61 6.80267 19.8073 5 17.61 5H9.42249C9.00513 3.84267 7.90315 3 6.60999 3ZM6.60999 5C7.17412 5 7.60999 5.43587 7.60999 6C7.60999 6.56413 7.17412 7 6.60999 7C6.04586 7 5.60999 6.56413 5.60999 6C5.60999 5.43587 6.04586 5 6.60999 5ZM18.61 17C19.1741 17 19.61 17.4359 19.61 18C19.61 18.5641 19.1741 19 18.61 19C18.0459 19 17.61 18.5641 17.61 18C17.61 17.4359 18.0459 17 18.61 17Z" fill="#222222"/>
</g>
</svg>
