<svg width="17" height="16" viewBox="0 0 17 16" fill="none" xmlns="http://www.w3.org/2000/svg">
<g id="Frame">
<path id="Vector" d="M11.6224 1.26953L11.2422 1.34766C11.2422 1.34766 9.79131 1.64864 8.07687 2.35286C6.36244 3.05709 4.33845 4.15212 3.16542 5.90885L3.155 5.92318L3.14588 5.9375C2.60814 6.841 2.53 7.70932 2.53 8.375C2.53 9.64652 3.12802 10.722 3.90109 11.4648C4.23019 11.7811 4.59275 12.0319 4.9675 12.2318C4.33833 12.7022 3.6632 13.0959 2.94927 13.3815L3.44406 14.6185C7.02759 13.1851 9.62726 9.68582 10.5066 6.15234L9.21229 5.83073C8.72804 7.77671 7.61412 9.74687 6.09901 11.2552C5.70339 11.1382 5.22396 10.8867 4.82557 10.5039C4.26531 9.96557 3.86333 9.22815 3.86333 8.375C3.86333 7.80276 3.91286 7.27153 4.28781 6.63411C5.20148 5.27859 6.99549 4.23818 8.58338 3.58594C9.96202 3.01965 10.8219 2.84653 11.1172 2.77995C12.5563 4.58982 13.1762 6.81426 13.1954 8.26042C13.2154 9.7592 12.8279 10.8438 12.2514 11.5547C11.6769 12.2629 10.912 12.6264 10.0248 12.6641C9.62814 12.6591 9.17569 12.677 8.51828 12.1719L7.70578 13.2292C8.68059 13.9782 9.67009 13.9943 10.0326 14H10.0508H10.0691C11.3116 13.9507 12.4761 13.3937 13.2865 12.3945C14.0969 11.3954 14.552 9.98271 14.5287 8.24349C14.5037 6.36406 13.77 3.70825 11.879 1.5599L11.6224 1.26953Z" fill="#828282"/>
</g>
</svg>
